<mxfile host="app.diagrams.net" modified="2023-02-10T22:00:41.446Z" agent="5.0 (X11; Linux x86_64) AppleWebKit/537.36 (KHTML, like Gecko) Chrome/109.0.0.0 Safari/537.36" etag="UeGy70jyh9czZjj1VpqS" version="20.8.20" type="github">
  <diagram name="Page-1" id="7a6c530e-6e37-e111-ec74-82921da8cc10">
    <mxGraphModel dx="1434" dy="741" grid="1" gridSize="10" guides="1" tooltips="1" connect="1" arrows="1" fold="1" page="1" pageScale="1.5" pageWidth="827" pageHeight="1169" background="#eceff3" math="0" shadow="0">
      <root>
        <mxCell id="0" style=";html=1;" />
        <mxCell id="1" style=";html=1;" parent="0" />
        <mxCell id="rcPoYwZRDyphzUQkZkZY-44" value="" style="rounded=1;whiteSpace=wrap;html=1;labelBackgroundColor=none;fontSize=12;fontColor=#0d0d0d;fillColor=#CFCFCF;gradientColor=none;opacity=60;fontStyle=1" parent="1" vertex="1">
          <mxGeometry x="149.5" y="60" width="840.5" height="570" as="geometry" />
        </mxCell>
        <mxCell id="23046e2b9bb16c14-116" value="" style="whiteSpace=wrap;html=1;rounded=1;shadow=0;strokeColor=none;strokeWidth=2;fillColor=#009BFF;fontSize=12;fontColor=#FFFFFF;align=center;arcSize=3;verticalAlign=top;spacingTop=4;opacity=50;fontStyle=1" parent="1" vertex="1">
          <mxGeometry x="173" y="90" width="787" height="516" as="geometry" />
        </mxCell>
        <mxCell id="rJtXdkc1sMicTIPMUd31-7" value="" style="rounded=1;whiteSpace=wrap;html=1;labelBackgroundColor=none;fillColor=#d5e8d4;strokeColor=#82b366;opacity=60;" parent="1" vertex="1">
          <mxGeometry x="190" y="100" width="722.08" height="495" as="geometry" />
        </mxCell>
        <mxCell id="rcPoYwZRDyphzUQkZkZY-3" value="&lt;font style=&quot;font-size: 12px;&quot;&gt;Master 01&lt;br style=&quot;font-size: 12px;&quot;&gt;&lt;/font&gt;" style="verticalLabelPosition=bottom;html=1;verticalAlign=top;strokeColor=none;fillColor=#FFFFFF;shape=mxgraph.azure.virtual_machine;rounded=1;shadow=0;fontSize=12;fontColor=#0d0d0d;align=center;labelPosition=center;fontStyle=1" parent="1" vertex="1">
          <mxGeometry x="260" y="233" width="110" height="80" as="geometry" />
        </mxCell>
        <mxCell id="rcPoYwZRDyphzUQkZkZY-25" value="SEMASV046&lt;br style=&quot;font-size: 12px;&quot;&gt;10.233.147.13&lt;br&gt;IP 02" style="text;html=1;align=center;verticalAlign=middle;resizable=0;points=[];autosize=1;strokeColor=none;fillColor=none;fontColor=#030303;fontStyle=1;fontSize=12;" parent="1" vertex="1">
          <mxGeometry x="265" y="173" width="100" height="60" as="geometry" />
        </mxCell>
        <mxCell id="686fVdz83tYppI1NJqFT-3" value="&lt;font style=&quot;font-size: 12px;&quot;&gt;Master 01&lt;br style=&quot;font-size: 12px;&quot;&gt;&lt;/font&gt;" style="verticalLabelPosition=bottom;html=1;verticalAlign=top;strokeColor=none;fillColor=#FFFFFF;shape=mxgraph.azure.virtual_machine;rounded=1;shadow=0;fontSize=12;fontColor=#0d0d0d;align=center;labelPosition=center;fontStyle=1" vertex="1" parent="1">
          <mxGeometry x="720" y="228" width="110" height="80" as="geometry" />
        </mxCell>
        <mxCell id="686fVdz83tYppI1NJqFT-4" value="SEMASV046&lt;br style=&quot;font-size: 12px;&quot;&gt;10.233.147.13&lt;br&gt;IP 02" style="text;html=1;align=center;verticalAlign=middle;resizable=0;points=[];autosize=1;strokeColor=none;fillColor=none;fontColor=#030303;fontStyle=1;fontSize=12;" vertex="1" parent="1">
          <mxGeometry x="501.04" y="168" width="100" height="60" as="geometry" />
        </mxCell>
        <mxCell id="686fVdz83tYppI1NJqFT-5" value="&lt;font style=&quot;font-size: 12px;&quot;&gt;Master 01&lt;br style=&quot;font-size: 12px;&quot;&gt;&lt;/font&gt;" style="verticalLabelPosition=bottom;html=1;verticalAlign=top;strokeColor=none;fillColor=#FFFFFF;shape=mxgraph.azure.virtual_machine;rounded=1;shadow=0;fontSize=12;fontColor=#0d0d0d;align=center;labelPosition=center;fontStyle=1" vertex="1" parent="1">
          <mxGeometry x="496.04" y="228" width="110" height="80" as="geometry" />
        </mxCell>
        <mxCell id="686fVdz83tYppI1NJqFT-6" value="SEMASV046&lt;br style=&quot;font-size: 12px;&quot;&gt;10.233.147.13&lt;br&gt;IP 02" style="text;html=1;align=center;verticalAlign=middle;resizable=0;points=[];autosize=1;strokeColor=none;fillColor=none;fontColor=#030303;fontStyle=1;fontSize=12;" vertex="1" parent="1">
          <mxGeometry x="730" y="168" width="100" height="60" as="geometry" />
        </mxCell>
      </root>
    </mxGraphModel>
  </diagram>
</mxfile>
